<?xml version="1.0" encoding="UTF-8"?>
<svg width="24px" height="24px" viewBox="0 0 24 24" version="1.1" xmlns="http://www.w3.org/2000/svg" xmlns:xlink="http://www.w3.org/1999/xlink">
    <!-- Generator: Sketch 53 (72520) - https://sketchapp.com -->
    <title>EF</title>
    <desc>Created with Sketch.</desc>
    <g id="EF" stroke="none" stroke-width="1" fill="none" fill-rule="evenodd">
        <g id="Extreme-Fear" fill-rule="nonzero">
            <path d="M20.4851926,20.4853341 C15.7990039,25.1715553 8.2010514,25.1715553 3.51464158,20.4853341 C-1.17154719,15.799113 -1.17154719,8.20110806 3.51464158,3.51466586 C8.2010514,-1.17155529 15.7990039,-1.17155529 20.4851926,3.51466586 C25.1716025,8.20110806 25.1716025,15.799113 20.4851926,20.4853341 Z" id="Path" fill="#13C661"></path>
            <path d="M15.9313013,16.7754703 C15.956142,16.7497812 15.9824516,16.7250557 16.0102211,16.7014079 C16.4029273,16.3670261 16.7476612,15.99123 17.0401643,15.5823825 C17.4986634,14.9373602 17.8351258,14.2043721 18.0208363,13.4207169 C18.0874799,13.1378956 18.1346843,12.8485535 18.1616438,12.554273 C18.1899051,12.2393281 18.1941284,11.9188321 18.172659,11.5949344 C18.1519748,11.2972738 18.1116533,11.0011832 18.0493725,10.7070807 C17.9866465,10.4130728 17.9030512,10.1261803 17.8003585,9.84765318 C17.728666,9.64965689 17.6472934,9.45909612 17.5573971,9.27450319 C17.5576438,9.2734852 17.5578905,9.27246718 17.5581372,9.27144913 C16.6818187,7.48515117 14.9654748,6.1619714 12.8859429,5.86202035 L12.884278,5.86290499 C12.5904864,5.82036537 12.2924827,5.79824512 11.9918582,5.79801753 C11.6912336,5.79824512 11.3932299,5.82036537 11.0994383,5.86290499 C10.8080615,5.90557142 10.5163388,5.96965618 10.226055,6.05612542 C8.62621694,6.54577065 7.3515328,7.58525089 6.5487828,9.04347094 C6.44160531,9.25135177 6.21676636,9.72036743 6.07099347,10.2473236 C6.02859177,10.3825988 5.98284826,10.5234839 5.93449402,10.6654918 C5.93540339,10.6673721 5.93631291,10.6692522 5.93722259,10.6711322 C5.81044278,11.2519968 5.76602024,11.8607901 5.81597828,12.4833888 C5.94839146,14.1313806 6.7143542,15.6292737 7.97349526,16.7014079 C8.01713988,16.7385746 8.05717848,16.7784034 8.09357552,16.8204516 C8.13689615,16.8452504 8.17904696,16.8732778 8.21971205,16.904575 C8.22812563,16.9110511 8.21310974,16.9393445 8.19994511,16.9659016 C8.20968282,16.981812 8.21898735,16.9979265 8.22785724,17.0142273 C8.34143557,17.0109937 8.36445824,17.0130127 8.40679327,17.0431919 C9.04496649,17.4981247 9.75121331,17.822591 10.4932105,18.0079381 C11.2352078,18.1932852 12.0129554,18.2395132 12.7941303,18.1379696 C13.2151111,18.0832015 13.6207885,17.9871115 14.0076099,17.8543144 C14.0171126,17.8510521 14.1375029,17.8087056 14.3899617,17.7042231 L14.3923775,17.707621 C14.9548156,17.4712834 15.4718275,17.1553224 15.9313013,16.7754703 Z M18.2037471,6.33226093 C18.2123363,6.34166131 18.2209053,6.35108275 18.2294541,6.36052518 C18.6174527,6.79043368 18.9611947,7.25987937 19.2541881,7.76123657 C19.3471654,7.92092635 19.4352348,8.0844108 19.5181357,8.25154903 C19.8306339,8.87926511 20.0644323,9.54846968 20.2123595,10.2473236 C20.3614708,10.9459258 20.4200753,11.652369 20.3899091,12.3529206 C20.3853733,12.461983 20.3787125,12.5706224 20.3699629,12.6787919 C20.3452607,12.9782044 20.3051359,13.2739418 20.2500485,13.5651053 C20.2482559,13.5747094 20.2464117,13.5843021 20.244551,13.5938898 C19.9787915,14.972421 19.3772736,16.2475434 18.4889751,17.3235629 C17.7350437,18.2436224 16.7865923,19.0060331 15.6965624,19.5420246 L15.7008891,19.5481103 C15.4983017,19.6444246 15.2239118,19.7564175 15.218856,19.7585195 C14.5490409,20.0369937 13.8321126,20.2323822 13.0791104,20.3303455 C10.8541666,20.6195374 8.6497533,20.0250166 6.87152973,18.6562696 C6.81113586,18.6098282 6.75687675,18.5583779 6.70888314,18.5029479 C6.65018378,18.469328 6.59374808,18.4298101 6.54038229,18.3843269 C4.83183222,16.9295403 3.79197977,14.8969066 3.61226038,12.6604568 C3.47105359,10.9006677 3.88550179,9.22212085 4.70817741,7.79798314 C5.45092347,6.46139603 6.63191652,5.31786895 8.04991241,4.5667387 C8.62670954,4.2597628 9.24484245,4.01761701 9.89535882,3.85081666 C10.5743298,3.67565678 11.2775201,3.58610285 11.9918582,3.58670815 C12.7061962,3.58610285 13.4093865,3.67565678 14.0883575,3.85081666 C15.7064588,4.26571762 17.1241968,5.14679665 18.203794,6.33222181 Z" id="Combined-Shape" fill="#FFFFFF"></path>
            <path d="M16.3700253,9.61115334 C16.1067099,10.3605401 15.7647444,11.2416155 15.355781,12.1693311 C14.3867233,14.3675962 13.3362505,16.1649135 12.2092185,17.2920549 C10.660536,18.840748 8.14924512,18.840748 6.60056265,17.2920549 C5.05188304,15.7433645 5.05188304,13.2320652 6.60058654,11.683351 C7.73780096,10.5462312 9.55304328,9.48860625 11.7690285,8.51584423 C12.69287,8.11030097 13.5642905,7.7735183 14.2965987,7.51731205 C14.4171924,7.475121 14.503233,7.44594328 14.5237304,7.43975435 C15.9587885,6.90608955 16.9816183,7.91266681 16.4686182,9.32403363 C16.4509772,9.37756826 16.4178678,9.47499538 16.3700253,9.61115334 Z" id="Path" stroke="#13C661" stroke-width="1.5" fill="#FFFFFF" transform="translate(11.020436, 12.872185) scale(-1, 1) rotate(60.000000) translate(-11.020436, -12.872185) "></path>
        </g>
    </g>
</svg>