<?xml version="1.0" encoding="UTF-8"?>
<svg width="24px" height="24px" viewBox="0 0 24 24" version="1.1" xmlns="http://www.w3.org/2000/svg" xmlns:xlink="http://www.w3.org/1999/xlink">
    <!-- Generator: Sketch 53 (72520) - https://sketchapp.com -->
    <title>EG</title>
    <desc>Created with Sketch.</desc>
    <g id="EG" stroke="none" stroke-width="1" fill="none" fill-rule="evenodd">
        <g id="Extreme-Greed" fill-rule="nonzero">
            <path d="M20.4851926,20.4853341 C15.7990039,25.1715553 8.2010514,25.1715553 3.51464158,20.4853341 C-1.17154719,15.799113 -1.17154719,8.20110806 3.51464158,3.51466586 C8.2010514,-1.17155529 15.7990039,-1.17155529 20.4851926,3.51466586 C25.1716025,8.20110806 25.1716025,15.799113 20.4851926,20.4853341 Z" id="Path" fill="#D93741"></path>
            <path d="M4.67755876,7.85143673 C5.40077017,6.55498147 6.41595832,5.5192362 7.66880257,4.78283211 C8.35133691,4.372056 9.09908741,4.05499039 9.89535882,3.85081666 C10.5743298,3.67565678 11.2775201,3.58610285 11.9918582,3.58670815 C11.9945723,3.58670585 11.9972862,3.58670485 12,3.58670515 L12,3.58457572 L12.0655577,3.58696572 C12.2272429,3.58823326 12.3883326,3.59412184 12.5486748,3.60457849 L12.6915436,3.60978699 C13.7928741,3.71426 14.6151661,3.97004529 15.2433659,4.23893427 C15.8241277,4.48270128 16.370298,4.78943749 16.8740578,5.14995873 C17.8844073,5.86718544 18.7271667,6.80484823 19.3363787,7.90510089 C19.6154642,8.40493725 19.8446952,8.93504242 20.0178639,9.48812484 C20.0198258,9.49416036 20.0217804,9.50019904 20.0237274,9.50624084 C20.0275073,9.51797024 20.0499212,9.58626226 20.0816486,9.69780233 C20.0994044,9.75296495 20.1138368,9.80709982 20.1249457,9.86020695 C20.3587563,10.7498752 20.4490945,11.692886 20.3714559,12.6604568 C20.1917366,14.8969066 19.1518841,16.9295403 17.443334,18.3843269 C17.2353193,18.5616159 16.9806616,18.6482709 16.7271091,18.6482709 C16.4145344,18.6482709 16.1037282,18.5162989 15.8853238,18.2594288 C15.4896317,17.7945426 15.5455591,17.0971028 16.0102211,16.7014079 C17.2693621,15.6292737 18.0353249,14.1313806 18.167738,12.4833888 C18.2220184,11.806924 18.1648804,11.1467569 18.0117458,10.5210026 C18.0088579,10.5117485 18.0063228,10.5047744 18.0041405,10.5000804 C17.9890811,10.4387947 17.9647364,10.3490463 17.9311066,10.230835 C17.880156,10.0578731 17.8219558,9.88822536 17.7568108,9.72219947 C17.7275586,9.6476485 17.6969062,9.57382781 17.6648811,9.50076528 C17.4529177,9.01996233 17.1812165,8.56967411 16.8585039,8.16015096 C16.3399388,7.50520152 15.6878245,6.95598422 14.9349877,6.54563086 C14.5451552,6.33319627 13.7321777,5.97810364 12.9319455,5.8720092 C12.6429195,5.83370824 12.3933322,5.81007709 12.1831835,5.80111576 C12.119537,5.79910337 12.0557568,5.79806591 11.9918582,5.79801753 C11.6912336,5.79824512 11.3932299,5.82036537 11.0994383,5.86290499 L11.0977734,5.86202035 C10.890863,5.89186505 10.6875481,5.93183967 10.4882985,5.98139249 C10.3435721,6.02383309 10.2141681,6.07238126 10.0476837,6.12780762 C8.47859993,6.65019058 7.21565779,7.76114269 6.47553782,9.23953124 C6.22401725,9.74207675 6.04405964,10.2096934 5.92310383,10.7375837 C5.80719769,11.2983636 5.76792187,11.8844889 5.81597828,12.4833888 C5.94839146,14.1313806 6.7143542,15.6292737 7.97349526,16.7014079 C8.43815721,17.0971028 8.49408465,17.7945426 8.0983925,18.2594288 C7.87998812,18.5162989 7.56918188,18.6482709 7.25660719,18.6482709 C7.00305473,18.6482709 6.74839699,18.5616159 6.54038229,18.3843269 C4.83183222,16.9295403 3.79197977,14.8969066 3.61226038,12.6604568 C3.47281636,10.9226361 3.8752408,9.26404204 4.67755876,7.85143673 Z" id="Combined-Shape" fill="#FFFFFF"></path>
            <path d="M18.3700253,9.61115334 C18.1067099,10.3605401 17.7647444,11.2416155 17.355781,12.1693311 C16.3867233,14.3675962 15.3362505,16.1649135 14.2092185,17.2920549 C12.660536,18.840748 10.1492451,18.840748 8.60056265,17.2920549 C7.05188304,15.7433645 7.05188304,13.2320652 8.60058654,11.683351 C9.73780096,10.5462312 11.5530433,9.48860625 13.7690285,8.51584423 C14.69287,8.11030097 15.5642905,7.7735183 16.2965987,7.51731205 C16.4171924,7.475121 16.503233,7.44594328 16.5237304,7.43975435 C17.9587885,6.90608955 18.9816183,7.91266681 18.4686182,9.32403363 C18.4509772,9.37756826 18.4178678,9.47499538 18.3700253,9.61115334 Z" id="Path" stroke="#D93741" stroke-width="1.5" fill="#FFFFFF" transform="translate(13.020436, 12.872185) rotate(60.000000) translate(-13.020436, -12.872185) "></path>
        </g>
    </g>
</svg>