<svg xmlns="http://www.w3.org/2000/svg" version="1.1" xmlns:xlink="http://www.w3.org/1999/xlink"
    xmlns:svgjs="http://svgjs.com/svgjs" width="512" height="512" x="0" y="0" viewBox="0 0 512 512"
    style="enable-background:new 0 0 512 512" xml:space="preserve" class="">
    <g>
        <g xmlns="http://www.w3.org/2000/svg">
            <g>
                <path
                    d="m435.423 205.881c-3.919 0-7.248-3.009-7.576-6.985-.346-4.189 2.77-7.865 6.959-8.211 15.344-1.266 19.822-13.921 20.006-14.459 1.274-4.005 5.541-6.187 9.548-4.911 4.005 1.274 6.208 5.589 4.935 9.594-.296.931-7.547 22.826-33.236 24.946-.214.017-.426.026-.636.026z"
                    fill="#df8169" data-original="#df8169"></path>
            </g>
            <g>
                <path
                    d="m60.949 512c-2.876 0-5.627-1.637-6.913-4.419l-14.292-30.909c-4.018-8.691-1.329-19.108 6.394-24.768l19.131-14.02c3.389-2.486 8.152-1.752 10.638 1.64 2.484 3.39 1.75 8.153-1.64 10.637l-19.131 14.02c-1.903 1.395-2.566 3.961-1.576 6.103l14.292 30.909c1.764 3.815.101 8.338-3.714 10.102-1.034.479-2.121.705-3.189.705z"
                    fill="#537983" data-original="#537983" class=""></path>
            </g>
            <g>
                <g>
                    <path
                        d="m136.911 511.999c-2.618 0-5.166-1.352-6.581-3.777l-13.012-22.303c-4.412-7.56-3.471-17.039 2.341-23.587l15.468-17.422c2.789-3.143 7.6-3.43 10.744-.638 3.143 2.791 3.429 7.601.638 10.744l-15.467 17.421c-1.432 1.613-1.664 3.948-.577 5.811l13.013 22.304c2.118 3.63.892 8.29-2.739 10.409-1.205.704-2.525 1.038-3.828 1.038z"
                        fill="#e78e77" data-original="#e78e77"></path>
                </g>
                <path
                    d="m215.029 390.92s-4.41 36.065-32.07 60.879c-14.363 12.885-36.364 12.06-49.752-1.835s20.644-36.172 17.908-73.537z"
                    fill="#e78e77" data-original="#e78e77"></path>
                <path d="m369.624 355.071 70.945-30.822c-6.923-16.662-23.165-27.545-41.208-27.612l-26.904-.099z"
                    fill="#537983" data-original="#537983" class=""></path>
                <path d="m369.624 355.071 70.945-30.822c-6.923-16.662-23.165-27.545-41.208-27.612l-26.904-.099z"
                    fill="#537983" data-original="#537983" class=""></path>
                <path
                    d="m187.235 384.617c-5.434 19.416-16.538 50.791-34.808 67.182-2.654 2.381-5.57 4.291-8.643 5.739 12.667 5.949 28.164 4.139 39.175-5.739 27.66-24.815 32.07-60.879 32.07-60.879z"
                    fill="#df8169" data-original="#df8169"></path>
                <path d="m369.624 355.071 70.945-30.822c-6.923-16.662-23.165-27.545-41.208-27.612l-26.904-.099z"
                    fill="#df8169" data-original="#df8169"></path>
                <path
                    d="m389.047 186.68 23.545-7.013c6.435-1.917 13.387.301 17.522 5.59l41.847 53.518c3.083 3.942 2.821 9.546-.616 13.183l-7.7 8.15c-2.274 2.407-5.579 3.549-8.854 3.059-13.165-1.97-47.385-7.413-58.825-12.353 0 0 7.843 101.525-62.061 133.681s-107.369-3.376-146.215 8.413-98.044 29.883-102.295-14.065 18.596-82.939 66.049-84.287 73.129-4.645 91.783-51.137 75.301-68.355 145.82-56.739z"
                    fill="#537983" data-original="#537983" class=""></path>
                <g fill="#4d6f77">
                    <path
                        d="m377.933 250.814c-6.713 0-12.156 5.401-12.257 12.113-.419 27.902-7.253 96.245-62.302 121.568-11.157 5.132-20.97 9.717-29.75 13.849 17.331.056 37.007-3.142 60.282-13.849 69.904-32.156 62.061-133.681 62.061-133.681z"
                        fill="#4d6f77" data-original="#4d6f77"></path>
                    <path
                        d="m471.961 238.775-41.847-53.518c-4.136-5.289-11.088-7.507-17.522-5.59l-14.212 4.233c.42.429.827.876 1.203 1.357l41.847 53.518c3.083 3.942 2.821 9.546-.616 13.183l-7.323 7.751c8.516 1.499 16.379 2.721 21.301 3.458 3.275.49 6.58-.651 8.854-3.059l7.7-8.15c3.436-3.638 3.698-9.241.615-13.183z"
                        fill="#4d6f77" data-original="#4d6f77"></path>
                </g>
                <path
                    d="m355.128 435.628c-8.828-1.776-16.54-6.352-22.243-12.725s-9.386-14.552-10.158-23.522l-.331-3.794c-.352-4.033-1.362-7.981-2.99-11.687l-11.322-25.779c10.553-4.678 26.038-11.538 36.795-16.297 10.178 3.389 19.432 7.753 24.75 13.242 16.804 17.394-14.501 80.562-14.501 80.562z"
                    fill="#537983" data-original="#537983" class=""></path>
                <path
                    d="m165.732 375.889s-10.743 45.166-47.686 72.59c-18.395 13.655-44.076 11.607-60.412-4.455s29.24-20.455 27.761-65.181z"
                    fill="#537983" data-original="#537983" class=""></path>
                <path
                    d="m142.419 376.746c-4.408.162-8.276 2.949-9.857 7.068-6.876 17.915-20.951 46.778-45.047 64.665-3.816 2.833-7.949 4.98-12.243 6.476 14.108 4.868 30.155 2.892 42.775-6.476 26.827-19.915 39.838-49.185 44.952-63.722 1.501-4.268-1.762-8.703-6.283-8.536z"
                    fill="#4d6f77" data-original="#4d6f77"></path>
            </g>
            <g>
                <path
                    d="m323.004 474.299c-2.39 0-4.743-1.122-6.225-3.223-2.423-3.434-1.604-8.183 1.83-10.606 8.975-6.334 19.574-24.987 22.9-31.64 1.879-3.758 6.451-5.284 10.209-3.406 3.76 1.878 5.286 6.446 3.41 10.206-1.396 2.796-14.032 27.603-27.743 37.278-1.334.939-2.865 1.391-4.381 1.391z"
                    fill="#4d6f77" data-original="#4d6f77"></path>
            </g>
            <path
                d="m369.624 355.071c-5.942-6.146-16.828-10.872-28.42-14.417.001.002.001.004.002.005l-.001-.002c-20.67-6.484-43.198-9.133-46.983-9.539-4.191-.436-7.925 2.577-8.382 6.758-.447 4.181 2.577 7.935 6.758 8.382.142.01 13.831 1.502 29.407 5.043 5.622 1.278 10.775 2.665 15.402 4.132 3.843 1.219 6.287 4.95 5.892 8.962-1.784 18.138-8.253 40.399-13.092 55.161 5.838 8.109 14.616 14 24.915 16.068.002.002 31.31-63.167 14.502-80.553z"
                fill="#4d6f77" data-original="#4d6f77"></path>
            <g>
                <path
                    d="m389.052 194.29c-2.241 0-4.459-.985-5.962-2.874-9.644-12.129-13.351-24.071-11.02-35.495 3.449-16.895 19.098-25.541 19.762-25.901 3.696-2.002 8.315-.627 10.316 3.069 1.996 3.685.636 8.287-3.035 10.299-.272.154-10.205 5.861-12.149 15.68-1.343 6.781 1.363 14.477 8.04 22.875 2.616 3.29 2.07 8.078-1.22 10.694-1.4 1.113-3.072 1.653-4.732 1.653z"
                    fill="#df8169" data-original="#df8169"></path>
            </g>
            <g>
                <path
                    d="m438.885 378.886c-.538 0-1.085-.057-1.633-.177-4.107-.898-6.707-4.955-5.809-9.061l3.698-16.908c.556-2.54.211-5.214-.97-7.53l-7.162-14.046c-1.91-3.744-.421-8.328 3.323-10.237 3.747-1.909 8.328-.422 10.238 3.323l7.162 14.045c2.775 5.442 3.585 11.727 2.28 17.696l-3.698 16.909c-.78 3.558-3.93 5.986-7.429 5.986z"
                    fill="#df8169" data-original="#df8169"></path>
            </g>
            <g>
                <path
                    d="m406.928.249-83.524 13.565c-7.932 1.288-11.072 11.017-5.39 16.699l18.311 18.311c2.469 2.469 2.469 6.471 0 8.94l-67.201 67.2c-1.674 1.674-4.387 1.674-6.061 0l-43.608-43.608c-6.737-6.737-17.659-6.737-24.396 0l-87.506 87.506c-3.381 3.381-3.381 8.863 0 12.244l12.152 12.152c3.381 3.381 8.863 3.381 12.244 0l71.629-71.629c2.032-2.032 5.326-2.032 7.358 0l42.959 42.959c6.737 6.737 17.659 6.737 24.396 0l82.429-82.429c2.469-2.469 6.471-2.469 8.94 0l18.312 18.312c5.682 5.682 15.411 2.542 16.699-5.39l13.565-83.524c1.081-6.64-4.666-12.387-11.308-11.308z"
                    fill="#a2e62e" data-original="#a2e62e"></path>
                <g fill="#97d729">
                    <path
                        d="m406.928.249-12.563 2.04c2.633 2.117 4.169 5.552 3.565 9.269l-11.106 68.269c-.934 5.754-6.308 8.964-11.359 8.137l12.507 12.507c5.682 5.682 15.411 2.542 16.699-5.39l13.565-83.524c1.081-6.64-4.666-12.387-11.308-11.308z"
                        fill="#97d729" data-original="#97d729"></path>
                    <path
                        d="m179.043 125.859-57.844 57.844c-2.44 2.44-5.971 3.109-9.02 2.028l7.527 7.527c3.381 3.381 8.863 3.381 12.244 0l71.629-71.629h-14.326c-3.829.001-7.502 1.522-10.21 4.23z"
                        fill="#97d729" data-original="#97d729"></path>
                    <path
                        d="m337.004 85.572-70.408 70.408c-4.582 4.582-11.099 6.04-16.92 4.388l4.221 4.221c6.737 6.737 17.659 6.737 24.396 0l82.429-82.429h-15.483c-3.089 0-6.051 1.227-8.235 3.412z"
                        fill="#97d729" data-original="#97d729"></path>
                </g>
                <path
                    d="m153.11 13.646h-6.035v-6.035c0-4.203-3.407-7.611-7.611-7.611s-7.611 3.407-7.611 7.611v6.035h-6.034c-4.204 0-7.611 3.407-7.611 7.611s3.407 7.611 7.611 7.611h6.034v6.035c0 4.203 3.407 7.611 7.611 7.611s7.611-3.407 7.611-7.611v-6.035h6.035c4.204 0 7.611-3.407 7.611-7.611s-3.407-7.611-7.611-7.611z"
                    fill="#a2e62e" data-original="#a2e62e"></path>
                <circle cx="96.401" cy="73.704" fill="#97d729" r="7.611" data-original="#97d729"></circle>
            </g>
        </g>
    </g>
</svg>